<svg xmlns="http://www.w3.org/2000/svg" version="1.1" xmlns:xlink="http://www.w3.org/1999/xlink" xmlns:svgjs="http://svgjs.dev/svgjs" viewBox="0 0 7.783154296875 8.36110556294587"><g transform="matrix(0.8571428571428572,0,0,0.8571428571428572,1.1118791852678567,6.181944144387236)"><rect width="9.65829794575837" height="9.65829794575837" x="-1.5861680158479352" y="-7.164105562945869" fill="#ffffff"></rect><g transform="matrix(1,0,0,1,0,0)" clip-path="url(#SvgjsClipPath20811)"><g clip-path="url(#a93f7e4a9-e165-471e-a08e-e6f98ac44aee11d16e05-067e-461c-bea5-a12677ff2ff9)"><path d=" M 6.051484849809484 -3.058456590066684 C 6.051484849809484 -1.50740067838632 4.7940841714231635 -0.2499999999999991 3.2429336543197023 -0.2499999999999991 C 1.691972348062435 -0.2499999999999991 0.43447706425301746 -1.50740067838632 0.43447706425301746 -3.058456590066684 C 0.43447706425301746 -4.609512501747048 1.691972348062435 -5.866913180133369 3.242933654319702 -5.866913180133369 C 4.7940841714231635 -5.866913180133369 6.051484849809484 -4.609512501747048 6.051484849809484 -3.058456590066684" fill="#41aab0" transform="matrix(1,0,0,1,0,0)" fill-rule="nonzero"></path></g><g clip-path="url(#a93f7e4a9-e165-471e-a08e-e6f98ac44aee11d16e05-067e-461c-bea5-a12677ff2ff9)"><path d=" M 4.6478241873147255 -4.565804796276092 L 1.8168515065508815 -4.565804796276092 C 1.7991045578284888 -4.5658550711202395 1.7820672475035573 -4.5588403378497535 1.7695004722330487 -4.546309061944416 C 1.7569336969625398 -4.533777786039078 1.749870795787017 -4.516760387502613 1.7498708669979879 -4.499013367569393 L 1.7498708669979879 -2.910682919188689 C 1.7498708669979879 -2.873692198757641 1.7797661806967364 -2.8440807013281844 1.8168515065508815 -2.8440807013281844 L 4.6478241873147255 -2.8440807013281844 C 4.68490951316887 -2.8440807013281844 4.7150886431369115 -2.873692198757641 4.7150886431369115 -2.910682919188689 L 4.7150886431369115 -4.499013367569393 C 4.7150886431369115 -4.535909482577344 4.68490951316887 -4.565804796276092 4.6478241873147255 -4.565804796276092 M 4.580748942338734 -2.9768121099337077 L 1.8837375406806784 -2.9768121099337077 L 1.8837375406806784 -4.43269496597818 L 4.580748942338734 -4.43269496597818 Z" fill="#ffffff" transform="matrix(1,0,0,1,0,0)" fill-rule="nonzero"></path></g><g clip-path="url(#a93f7e4a9-e165-471e-a08e-e6f98ac44aee11d16e05-067e-461c-bea5-a12677ff2ff9)"><path d=" M 1.5662417407661122 -2.5600752211900657 L 4.919909384142582 -2.5600752211900657 C 4.95690010457363 -2.5600752211900657 4.9868900236954765 -2.589686718619523 4.9868900236954765 -2.626488228204376 L 4.9868900236954765 -4.782829636861317 C 4.9869157037486955 -4.800567207744171 4.97985490291968 -4.817580154422986 4.967277052798417 -4.83008694324413 C 4.954699202677157 -4.842593732065272 4.937646524841196 -4.849558029708695 4.919909384142588 -4.849431854721821 L 1.5662417407661122 -4.849431854721821 C 1.5485132571913425 -4.849558202418881 1.5314701788701883 -4.842590928966289 1.5189073039866476 -4.830081361896964 C 1.506344429103107 -4.817571794827639 1.4993047466305367 -4.8005584974191535 1.4993557066363155 -4.782829636861317 L 1.4993557066363155 -2.626488228204376 C 1.4993557066363155 -2.589686718619523 1.5292510203350649 -2.5600752211900657 1.5662417407661122 -2.5600752211900657 M 1.6332223803190062 -4.716416629847006 L 4.8525503228973 -4.716416629847006 L 4.8525503228973 -2.6928066297955886 L 1.6332223803190062 -2.6928066297955886 Z" fill="#ffffff" transform="matrix(1,0,0,1,0,0)" fill-rule="nonzero"></path></g><g clip-path="url(#a93f7e4a9-e165-471e-a08e-e6f98ac44aee11d16e05-067e-461c-bea5-a12677ff2ff9)"><path d=" M 5.291235669799518 -1.7634975587107329 L 5.230877409863435 -1.7349267209353458 L 5.290951853530227 -1.7634975587107329 L 5.080170970869425 -2.1981148724197657 C 5.078956270997191 -2.2011753209425704 5.0774680943416675 -2.2041200109205206 5.07572451598385 -2.2069131767678156 L 4.982065147117516 -2.3998136344632264 C 4.971956035963355 -2.4252096606995335 4.947337852150495 -2.4418344403170593 4.920003989565681 -2.4417238368953336 L 4.642620889044375 -2.4417238368953336 C 4.637934055119139 -2.442196805276238 4.633211514928111 -2.442196805276238 4.628524681002875 -2.4417238368953336 L 4.06571701899699 -2.4417238368953336 C 4.0613780103416275 -2.442196621241647 4.057000479264926 -2.442196621241647 4.052661470609562 -2.4417238368953336 L 1.5673770058432812 -2.4417238368953336 C 1.5412758524038455 -2.4422827934604476 1.517261675003936 -2.427519069604417 1.5059780862531282 -2.4039762730795076 L 1.5062619025224204 -2.4039762730795076 L 1.4102373980786524 -2.2069131767678156 L 1.4059801540392733 -2.1983986886890574 L 1.3041847187865698 -1.9880908331437417 C 1.2984783230122248 -1.9811843000467224 1.2944326392718606 -1.9730605670960721 1.2923590408994068 -1.9643448719463175 L 1.1966183527249314 -1.7671871702115274 C 1.185050139517359 -1.7464933302887884 1.1853364461468718 -1.7212140412687233 1.197370377911208 -1.700787513079745 C 1.2094043096755442 -1.6803609848907666 1.2313768942037406 -1.667857787139897 1.2550845041990688 -1.6679460813824516 L 1.2550845041990688 -1.6682298976517433 L 1.5632143672269998 -1.6682298976517433 C 1.5662034698293854 -1.667945789535799 1.5692127798188584 -1.667945789535799 1.572201882421244 -1.6682298976517433 L 1.8632081638685634 -1.6682298976517433 C 1.8655732994459961 -1.6682298976517433 1.8679384350234285 -1.6679460813824516 1.870776597716348 -1.6682298976517433 L 2.1826906776681723 -1.6682298976517433 L 3.606786111551949 -1.668513713921035 L 3.9599481559742 -1.668513713921035 C 3.963032091417569 -1.6682300678317823 3.9661355519943666 -1.6682300678317823 3.969219487437736 -1.668513713921035 L 5.2251064790545 -1.668513713921035 C 5.2371207176161105 -1.667460960665279 5.24919384638775 -1.6697185375900574 5.260015880177406 -1.6750414881147497 C 5.275905740513908 -1.6826098807075462 5.288129236591714 -1.6961922589541567 5.293986948459586 -1.7127891092464615 C 5.299844660327459 -1.7293859595387673 5.298854693110916 -1.747631913065736 5.291235669799518 -1.7634975587107329 M 4.878093787133574 -2.3087086120205185 L 4.911394896063826 -2.2403088911211646 L 4.775730719342287 -2.2403088911211646 L 4.742429610412034 -2.3087086120205185 Z M 4.593804490726164 -2.3087086120205185 L 4.627484021348805 -2.2403088911211646 L 4.476777582354794 -2.2403088911211646 L 4.443476473424542 -2.3087086120205185 Z M 4.294945959161768 -2.3087086120205185 L 4.328530884361312 -2.2403088911211646 L 4.183689981599334 -2.2403088911211646 L 4.156916646862795 -2.3087086120205185 Z M 3.3099142938725974 -2.3087086120205185 L 3.435171874053433 -2.3087086120205185 L 3.4479436061715703 -2.2403088911211646 L 3.3099142938725974 -2.2403088911211646 Z M 3.3099142938725974 -2.1072936662463495 L 3.4723518053306752 -2.1072936662463495 L 3.4890969652188986 -2.0143911407647934 L 3.3099142938725974 -2.0143911407647934 Z M 2.4999026613134463 -2.3087086120205185 L 2.6595020100786053 -2.3087086120205185 L 2.6353776271887916 -2.2403088911211646 L 2.4702911638839895 -2.2403088911211646 Z M 2.220154425214707 -2.3087086120205185 L 2.354304915166689 -2.3087086120205185 L 2.3245988123141346 -2.2403088911211646 L 2.1868533162844543 -2.2403088911211646 Z M 1.9212012882272134 -2.3087086120205185 L 2.071623910951933 -2.3087086120205185 L 2.0385120128678755 -2.2403088911211646 L 1.8879001792969612 -2.2403088911211646 Z M 1.6086249703137074 -2.3087086120205185 L 1.7726707739644396 -2.3087086120205185 L 1.7393696650341874 -2.2403088911211646 L 1.574850834267969 -2.2403088911211646 Z M 1.525750619680466 -1.8009613062572667 L 1.3614209997604414 -1.800677489987975 L 1.4008714611920192 -1.88165973215927 L 1.5652956865351404 -1.88165973215927 Z M 1.4653923597443834 -2.0143911407647934 L 1.510424541138702 -2.1072936662463495 L 1.674754161058726 -2.1072936662463495 L 1.6299111905106023 -2.0143911407647934 Z M 1.8247037566679594 -1.8009613062572667 L 1.6739973176739475 -1.8009613062572667 L 1.7136369899517194 -1.88165973215927 L 1.8642488235226333 -1.88165973215927 Z M 1.778157888504084 -2.0143911407647934 L 1.8233792807445977 -2.1072936662463495 L 1.97370729804622 -2.1072936662463495 L 1.9287697220749986 -2.0143911407647934 Z M 2.134631122734741 -1.8009613062572667 L 1.9734234817769278 -1.8009613062572667 L 2.0125901269392132 -1.88165973215927 L 2.169729734703842 -1.88165973215927 Z M 2.2269660156777134 -2.0143911407647934 L 2.0771110254915772 -2.0143911407647934 L 2.122332417732091 -2.1072936662463495 L 2.267173320494069 -2.1072936662463495 Z M 2.4821168417711528 -1.8009613062572667 L 2.2802288688814976 -1.8009613062572667 L 2.315232875427501 -1.88165973215927 L 2.5102146524310536 -1.88165973215927 Z M 2.556571309748734 -2.0143911407647934 L 2.3725637618244697 -2.0143911407647934 L 2.412771066640826 -2.1072936662463495 L 2.589115575294208 -2.1072936662463495 Z M 2.8149387202274823 -1.8009613062572667 L 2.6230789221861412 -1.8009613062572667 L 2.6516497599615283 -1.88165973215927 L 2.830359404192343 -1.88165973215927 Z M 2.8560920792748106 -2.0143911407647934 L 2.697911811856112 -2.0143911407647934 L 2.730172261132294 -2.1072936662463495 L 2.87368868797091 -2.1072936662463495 Z M 2.8994213630533774 -2.2403088911211646 L 2.7768127347192664 -2.2403088911211646 L 2.80093711760908 -2.3087086120205185 L 2.9124769114408062 -2.3087086120205185 Z M 3.1760476201899066 -1.8009613062572667 L 2.951170529487605 -1.8009613062572667 L 2.9665912134524666 -1.88165973215927 L 3.1760476201899066 -1.88165973215927 Z M 3.1760476201899066 -2.0143911407647934 L 2.992040072265642 -2.0143911407647934 L 3.0099204972310334 -2.1072936662463495 L 3.176331436459198 -2.1072936662463495 Z M 3.176331436459198 -2.2403088911211646 L 3.0353693560442094 -2.2403088911211646 L 3.0484249044316383 -2.3087086120205185 L 3.176331436459199 -2.3087086120205185 Z M 3.3096304776033048 -1.8009613062572667 L 3.3096304776033048 -1.88165973215927 L 3.513315953531809 -1.88165973215927 L 3.5282636103811837 -1.8009613062572667 Z M 3.5834185720469143 -2.2403088911211646 L 3.571025261621167 -2.3087086120205185 L 3.713217212536421 -2.3087086120205185 L 3.7345034327333155 -2.2403088911211646 Z M 3.6078267712060197 -2.1072936662463495 L 3.7766028460116168 -2.1072936662463495 L 3.806214343441075 -2.0143911407647934 L 3.624950352786633 -2.0143911407647934 Z M 3.6641169979489185 -1.8009613062572667 L 3.6492639465226406 -1.88165973215927 L 3.8480299404500844 -1.88165973215927 L 3.8733841938401636 -1.8009613062572667 Z M 3.8532332387204367 -2.3087086120205185 L 4.013494825447276 -2.3087086120205185 L 4.040268160183814 -2.2403088911211646 L 3.8748032751866233 -2.2403088911211646 Z M 3.946135764201993 -2.0143911407647934 L 3.916997293888022 -2.1072936662463495 L 4.092017326618041 -2.1072936662463495 L 4.128156598241214 -2.0143911407647934 Z M 4.013778641716568 -1.8009613062572667 L 3.9884243883264894 -1.88165973215927 L 4.18028418636783 -1.88165973215927 L 4.211503975989942 -1.8009613062572667 Z M 4.271578419656732 -2.0143911407647934 L 4.235533753456657 -2.1072936662463495 L 4.392767966644383 -2.1072936662463495 L 4.437989358884898 -2.0143911407647934 Z M 4.354736586559266 -1.8009613062572667 L 4.323516796937154 -1.88165973215927 L 4.502510257437261 -1.88165973215927 L 4.541676902599547 -1.8009613062572667 Z M 4.541393086330255 -2.1072936662463495 L 4.692004919901169 -2.1072936662463495 L 4.737131706718586 -2.0143911407647934 L 4.586330662301476 -2.0143911407647934 Z M 4.690396627708515 -1.8009613062572667 L 4.651135377123132 -1.88165973215927 L 4.801463394424755 -1.88165973215927 L 4.84063003958704 -1.8009613062572667 Z M 4.8856622209813585 -2.0143911407647934 L 4.8403462233177486 -2.1072936662463495 L 4.97591579461619 -2.1072936662463495 L 5.020853370587412 -2.0143911407647934 Z M 4.9893497646960085 -1.8009613062572667 L 4.950088514110625 -1.88165973215927 L 5.085374269139776 -1.88165973215927 L 5.124540914302062 -1.8009613062572667 Z" fill="#ffffff" transform="matrix(1,0,0,1,0,0)" fill-rule="nonzero"></path></g></g><g><path d=" M 0.063 0.1140000000000001 Q 0.0945 0.11550000000000016 0.1455 0.11700000000000021 Q 0.1965 0.11850000000000005 0.246 0.11850000000000005 Q 0.3165 0.11850000000000005 0.381 0.11700000000000021 Q 0.4455 0.11550000000000016 0.47250000000000003 0.11550000000000016 Q 0.654 0.11550000000000016 0.744 0.19800000000000018 Q 0.834 0.2805000000000001 0.834 0.41100000000000014 Q 0.834 0.4650000000000002 0.8160000000000001 0.5242500000000001 Q 0.798 0.5835000000000001 0.75375 0.6337500000000001 Q 0.7095 0.6840000000000002 0.633 0.7155000000000001 Q 0.5565 0.7470000000000001 0.4395 0.7470000000000001 L 0.2955 0.7470000000000001 L 0.2955 0.7170000000000001 L 0.4245 0.7170000000000001 Q 0.531 0.7170000000000001 0.58725 0.6765000000000001 Q 0.6435 0.6360000000000001 0.6637500000000001 0.5700000000000002 Q 0.684 0.5040000000000001 0.684 0.4275000000000001 Q 0.684 0.28500000000000014 0.62775 0.21450000000000014 Q 0.5715 0.14400000000000013 0.435 0.14400000000000013 Q 0.366 0.14400000000000013 0.34500000000000003 0.1695000000000002 Q 0.324 0.19500000000000017 0.324 0.27300000000000013 L 0.324 1.0170000000000001 Q 0.324 1.0710000000000002 0.33525 1.098 Q 0.34650000000000003 1.1250000000000002 0.3795 1.1340000000000001 Q 0.41250000000000003 1.1430000000000002 0.47550000000000003 1.1460000000000001 L 0.47550000000000003 1.1760000000000002 Q 0.4365 1.1730000000000003 0.3765 1.1722500000000002 Q 0.3165 1.1715000000000002 0.255 1.1715000000000002 Q 0.1965 1.1715000000000002 0.1455 1.1722500000000002 Q 0.0945 1.1730000000000003 0.063 1.1760000000000002 L 0.063 1.1460000000000001 Q 0.114 1.1430000000000002 0.14025 1.1340000000000001 Q 0.1665 1.1250000000000002 0.17550000000000002 1.098 Q 0.1845 1.0710000000000002 0.1845 1.0170000000000001 L 0.1845 0.27300000000000013 Q 0.1845 0.21750000000000014 0.17550000000000002 0.19125000000000014 Q 0.1665 0.16500000000000004 0.14025 0.1552500000000001 Q 0.114 0.14550000000000018 0.063 0.14400000000000013 L 0.063 0.1140000000000001 M 1.092032958984375 0.028500000000000192 Q 1.131032958984375 0.028500000000000192 1.159532958984375 0.05700000000000016 Q 1.188032958984375 0.08550000000000013 1.188032958984375 0.12450000000000006 Q 1.188032958984375 0.1635000000000002 1.159532958984375 0.19200000000000017 Q 1.131032958984375 0.22050000000000014 1.092032958984375 0.22050000000000014 Q 1.053032958984375 0.22050000000000014 1.024532958984375 0.19200000000000017 Q 0.996032958984375 0.1635000000000002 0.996032958984375 0.12450000000000006 Q 0.996032958984375 0.08550000000000013 1.024532958984375 0.05700000000000016 Q 1.053032958984375 0.028500000000000192 1.092032958984375 0.028500000000000192 M 1.170032958984375 0.3870000000000001 L 1.170032958984375 1.0365000000000002 Q 1.170032958984375 1.0995000000000001 1.196282958984375 1.122 Q 1.222532958984375 1.1445 1.284032958984375 1.1445 L 1.284032958984375 1.1760000000000002 Q 1.258532958984375 1.1745 1.206782958984375 1.1722500000000002 Q 1.155032958984375 1.1700000000000002 1.102532958984375 1.1700000000000002 Q 1.051532958984375 1.1700000000000002 0.9990329589843749 1.1722500000000002 Q 0.946532958984375 1.1745 0.921032958984375 1.1760000000000002 L 0.921032958984375 1.1445 Q 0.982532958984375 1.1445 1.008782958984375 1.122 Q 1.035032958984375 1.0995000000000001 1.035032958984375 1.0365000000000002 L 1.035032958984375 0.5670000000000002 Q 1.035032958984375 0.49950000000000017 1.011032958984375 0.46725000000000017 Q 0.987032958984375 0.43500000000000016 0.921032958984375 0.43500000000000016 L 0.921032958984375 0.4035000000000002 Q 0.969032958984375 0.40800000000000014 1.014032958984375 0.40800000000000014 Q 1.057532958984375 0.40800000000000014 1.097282958984375 0.40275000000000016 Q 1.137032958984375 0.3975000000000002 1.170032958984375 0.3870000000000001 M 1.63507763671875 0.4035000000000002 L 1.63507763671875 0.43500000000000016 Q 1.6065776367187499 0.43500000000000016 1.58707763671875 0.4485000000000001 Q 1.56757763671875 0.4620000000000002 1.58257763671875 0.4860000000000001 L 1.98307763671875 1.0695000000000001 Q 2.00857763671875 1.1070000000000002 2.02807763671875 1.1227500000000001 Q 2.04757763671875 1.1385 2.07607763671875 1.1445 L 2.07607763671875 1.1760000000000002 Q 2.0610776367187498 1.1745 2.03032763671875 1.1722500000000002 Q 1.99957763671875 1.1700000000000002 1.9695776367187499 1.1700000000000002 Q 1.9230776367187499 1.1700000000000002 1.86982763671875 1.1722500000000002 Q 1.81657763671875 1.1745 1.79257763671875 1.1760000000000002 L 1.79257763671875 1.1445 Q 1.82257763671875 1.1445 1.84207763671875 1.1302500000000002 Q 1.86157763671875 1.116 1.84507763671875 1.0935000000000001 L 1.44457763671875 0.5100000000000001 Q 1.41457763671875 0.46650000000000014 1.39657763671875 0.45225000000000015 Q 1.37857763671875 0.43800000000000017 1.35157763671875 0.43500000000000016 L 1.35157763671875 0.4035000000000002 Q 1.36657763671875 0.40500000000000014 1.39807763671875 0.4072500000000001 Q 1.42957763671875 0.4095000000000001 1.45807763671875 0.4095000000000001 Q 1.50607763671875 0.4095000000000001 1.55857763671875 0.4072500000000001 Q 1.61107763671875 0.40500000000000014 1.63507763671875 0.4035000000000002 M 1.67557763671875 0.7845000000000002 Q 1.67557763671875 0.7845000000000002 1.67857763671875 0.7942500000000001 Q 1.68157763671875 0.8040000000000002 1.68532763671875 0.8145000000000002 Q 1.6890776367187499 0.8250000000000002 1.6890776367187499 0.8250000000000002 L 1.56457763671875 0.9870000000000001 Q 1.52557763671875 1.0380000000000003 1.52332763671875 1.0725000000000002 Q 1.52107763671875 1.1070000000000002 1.55107763671875 1.1242500000000002 Q 1.58107763671875 1.1415000000000002 1.63357763671875 1.1460000000000001 L 1.63357763671875 1.1760000000000002 Q 1.60807763671875 1.1745 1.57657763671875 1.17375 Q 1.54507763671875 1.1730000000000003 1.51582763671875 1.1722500000000002 Q 1.48657763671875 1.1715000000000002 1.46257763671875 1.1715000000000002 Q 1.42807763671875 1.1715000000000002 1.40032763671875 1.1722500000000002 Q 1.37257763671875 1.1730000000000003 1.34857763671875 1.1760000000000002 L 1.34857763671875 1.1460000000000001 Q 1.37707763671875 1.1430000000000002 1.4078276367187499 1.1197500000000002 Q 1.43857763671875 1.0965000000000003 1.48057763671875 1.0410000000000001 L 1.67557763671875 0.7845000000000002 M 2.04607763671875 0.4035000000000002 L 2.04607763671875 0.4335000000000001 Q 2.01757763671875 0.4365000000000001 1.98382763671875 0.4627500000000001 Q 1.95007763671875 0.4890000000000001 1.91407763671875 0.5385000000000001 L 1.74157763671875 0.7770000000000001 Q 1.74157763671875 0.7770000000000001 1.73857763671875 0.7672500000000002 Q 1.7355776367187499 0.7575000000000002 1.73257763671875 0.7477500000000001 Q 1.72957763671875 0.7380000000000002 1.72957763671875 0.7380000000000002 L 1.84657763671875 0.5745000000000001 Q 1.87957763671875 0.5280000000000001 1.88857763671875 0.4980000000000001 Q 1.89757763671875 0.4680000000000002 1.87882763671875 0.45225000000000015 Q 1.8600776367187501 0.4365000000000001 1.8060776367187499 0.4335000000000001 L 1.8060776367187499 0.4035000000000002 Q 1.84507763671875 0.40500000000000014 1.8713276367187501 0.4065000000000002 Q 1.89757763671875 0.40800000000000014 1.93207763671875 0.40800000000000014 Q 1.96657763671875 0.40800000000000014 1.99432763671875 0.4065000000000002 Q 2.02207763671875 0.40500000000000014 2.04607763671875 0.4035000000000002 M 2.47800732421875 0.3825000000000002 Q 2.61000732421875 0.3825000000000002 2.68425732421875 0.4627500000000001 Q 2.75850732421875 0.5430000000000001 2.75850732421875 0.7125000000000001 L 2.22900732421875 0.7125000000000001 L 2.22750732421875 0.6840000000000002 L 2.61450732421875 0.6840000000000002 Q 2.61750732421875 0.6105000000000002 2.6025073242187498 0.5482500000000001 Q 2.58750732421875 0.4860000000000001 2.55525732421875 0.4485000000000001 Q 2.52300732421875 0.41100000000000014 2.47200732421875 0.41100000000000014 Q 2.40300732421875 0.41100000000000014 2.34975732421875 0.4800000000000001 Q 2.29650732421875 0.5490000000000002 2.28600732421875 0.6990000000000001 L 2.29050732421875 0.7050000000000001 Q 2.28750732421875 0.7275000000000001 2.28600732421875 0.7545000000000002 Q 2.28450732421875 0.7815000000000001 2.28450732421875 0.8085000000000002 Q 2.28450732421875 0.9105000000000001 2.31750732421875 0.9840000000000002 Q 2.35050732421875 1.0575 2.40375732421875 1.0957500000000002 Q 2.45700732421875 1.1340000000000001 2.51400732421875 1.1340000000000001 Q 2.55900732421875 1.1340000000000001 2.59950732421875 1.1197500000000002 Q 2.6400073242187503 1.1055000000000001 2.67450732421875 1.0725000000000002 Q 2.7090073242187502 1.0395 2.73450732421875 0.9840000000000002 L 2.76450732421875 0.9960000000000002 Q 2.74800732421875 1.0455 2.71050732421875 1.092 Q 2.6730073242187498 1.1385 2.6160073242187503 1.16775 Q 2.55900732421875 1.197 2.48400732421875 1.197 Q 2.37600732421875 1.197 2.29875732421875 1.1475000000000002 Q 2.22150732421875 1.098 2.18025732421875 1.01025 Q 2.13900732421875 0.9225000000000001 2.13900732421875 0.8085000000000002 Q 2.13900732421875 0.6765000000000001 2.18100732421875 0.5812500000000002 Q 2.22300732421875 0.4860000000000001 2.29950732421875 0.43425000000000014 Q 2.37600732421875 0.3825000000000002 2.47800732421875 0.3825000000000002 M 3.1109794921875 2.220446049250313e-16 L 3.1109794921875 1.0365000000000002 Q 3.1109794921875 1.0995000000000001 3.1372294921875 1.122 Q 3.1634794921875002 1.1445 3.2249794921875 1.1445 L 3.2249794921875 1.1760000000000002 Q 3.1994794921875 1.1745 3.1477294921875 1.1722500000000002 Q 3.0959794921875 1.1700000000000002 3.0434794921875 1.1700000000000002 Q 2.9924794921875 1.1700000000000002 2.9399794921875 1.1722500000000002 Q 2.8874794921875 1.1745 2.8619794921875 1.1760000000000002 L 2.8619794921875 1.1445 Q 2.9234794921875 1.1445 2.9497294921875 1.122 Q 2.9759794921875 1.0995000000000001 2.9759794921875 1.0365000000000002 L 2.9759794921875 0.18000000000000016 Q 2.9759794921875 0.11250000000000004 2.9519794921875 0.08025000000000015 Q 2.9279794921875 0.04800000000000004 2.8619794921875 0.04800000000000004 L 2.8619794921875 0.01650000000000018 Q 2.9099794921875 0.02100000000000013 2.9549794921875 0.02100000000000013 Q 2.9984794921875 0.02100000000000013 3.0382294921875 0.015750000000000153 Q 3.0779794921875 0.010500000000000176 3.1109794921875 2.220446049250313e-16 M 3.82199560546875 0.0930000000000002 Q 3.91949560546875 0.0930000000000002 3.97949560546875 0.12225000000000019 Q 4.03949560546875 0.1515000000000002 4.09199560546875 0.1905000000000001 Q 4.11149560546875 0.20550000000000013 4.12199560546875 0.20550000000000013 Q 4.15049560546875 0.20550000000000013 4.15949560546875 0.1140000000000001 L 4.19399560546875 0.1140000000000001 Q 4.19099560546875 0.1695000000000002 4.18949560546875 0.2490000000000001 Q 4.18799560546875 0.3285000000000001 4.18799560546875 0.4590000000000002 L 4.15349560546875 0.4590000000000002 Q 4.14299560546875 0.39600000000000013 4.12799560546875 0.33750000000000013 Q 4.11299560546875 0.27900000000000014 4.07849560546875 0.2370000000000001 Q 4.03499560546875 0.1815000000000001 3.96449560546875 0.15075000000000016 Q 3.89399560546875 0.1200000000000001 3.81899560546875 0.1200000000000001 Q 3.7439956054687498 0.1200000000000001 3.68324560546875 0.15675000000000017 Q 3.62249560546875 0.19350000000000012 3.57899560546875 0.2625000000000002 Q 3.53549560546875 0.33150000000000013 3.51224560546875 0.42825000000000013 Q 3.48899560546875 0.5250000000000001 3.48899560546875 0.6465000000000002 Q 3.48899560546875 0.9165000000000001 3.57599560546875 1.0417500000000002 Q 3.6629956054687502 1.1670000000000003 3.84599560546875 1.1670000000000003 Q 3.89999560546875 1.1670000000000003 3.93974560546875 1.15125 Q 3.97949560546875 1.1355000000000002 4.00199560546875 1.1205 Q 4.03049560546875 1.1010000000000002 4.03799560546875 1.0837500000000002 Q 4.04549560546875 1.0665000000000002 4.04549560546875 1.0380000000000003 L 4.04549560546875 0.8940000000000001 Q 4.04549560546875 0.8325000000000001 4.03349560546875 0.8025000000000002 Q 4.0214956054687505 0.7725000000000002 3.98924560546875 0.7620000000000001 Q 3.95699560546875 0.7515000000000002 3.89399560546875 0.7500000000000002 L 3.89399560546875 0.7200000000000002 Q 3.9209956054687503 0.7215000000000001 3.95699560546875 0.7222500000000002 Q 3.99299560546875 0.7230000000000001 4.03274560546875 0.7237500000000001 Q 4.07249560546875 0.7245000000000001 4.10549560546875 0.7245000000000001 Q 4.15499560546875 0.7245000000000001 4.19474560546875 0.7230000000000001 Q 4.23449560546875 0.7215000000000001 4.26149560546875 0.7200000000000002 L 4.26149560546875 0.7500000000000002 Q 4.22849560546875 0.7515000000000002 4.21199560546875 0.7605000000000002 Q 4.19549560546875 0.7695000000000001 4.19024560546875 0.7965000000000002 Q 4.18499560546875 0.8235000000000001 4.18499560546875 0.8790000000000002 L 4.18499560546875 1.1760000000000002 L 4.15499560546875 1.1760000000000002 Q 4.15349560546875 1.1505 4.14374560546875 1.1205 Q 4.13399560546875 1.0905000000000002 4.1144956054687505 1.0905000000000002 Q 4.10549560546875 1.0905000000000002 4.09649560546875 1.0950000000000002 Q 4.08749560546875 1.0995000000000001 4.06499560546875 1.116 Q 4.01549560546875 1.1535000000000002 3.95999560546875 1.1752500000000001 Q 3.90449560546875 1.197 3.83099560546875 1.197 Q 3.67649560546875 1.197 3.56624560546875 1.13325 Q 3.45599560546875 1.0695000000000001 3.39749560546875 0.9495000000000001 Q 3.33899560546875 0.8295000000000001 3.33899560546875 0.6630000000000001 Q 3.33899560546875 0.48750000000000016 3.40199560546875 0.3600000000000001 Q 3.46499560546875 0.23250000000000015 3.57374560546875 0.16275000000000017 Q 3.68249560546875 0.0930000000000002 3.82199560546875 0.0930000000000002 M 4.7205 0.3825000000000002 Q 4.8525 0.3825000000000002 4.92675 0.4627500000000001 Q 5.001 0.5430000000000001 5.001 0.7125000000000001 L 4.4715 0.7125000000000001 L 4.47 0.6840000000000002 L 4.857 0.6840000000000002 Q 4.86 0.6105000000000002 4.845 0.5482500000000001 Q 4.83 0.4860000000000001 4.79775 0.4485000000000001 Q 4.7655 0.41100000000000014 4.7145 0.41100000000000014 Q 4.6455 0.41100000000000014 4.59225 0.4800000000000001 Q 4.539 0.5490000000000002 4.5285 0.6990000000000001 L 4.533 0.7050000000000001 Q 4.53 0.7275000000000001 4.5285 0.7545000000000002 Q 4.527 0.7815000000000001 4.527 0.8085000000000002 Q 4.527 0.9105000000000001 4.56 0.9840000000000002 Q 4.593 1.0575 4.64625 1.0957500000000002 Q 4.6995000000000005 1.1340000000000001 4.7565 1.1340000000000001 Q 4.8015 1.1340000000000001 4.842 1.1197500000000002 Q 4.8825 1.1055000000000001 4.917 1.0725000000000002 Q 4.9515 1.0395 4.977 0.9840000000000002 L 5.007 0.9960000000000002 Q 4.9905 1.0455 4.953 1.092 Q 4.9155 1.1385 4.8585 1.16775 Q 4.8015 1.197 4.7265 1.197 Q 4.6185 1.197 4.54125 1.1475000000000002 Q 4.464 1.098 4.42275 1.01025 Q 4.3815 0.9225000000000001 4.3815 0.8085000000000002 Q 4.3815 0.6765000000000001 4.4235 0.5812500000000002 Q 4.4655 0.4860000000000001 4.542 0.43425000000000014 Q 4.6185 0.3825000000000002 4.7205 0.3825000000000002 M 5.32797216796875 1.1865 Q 5.26647216796875 1.1865 5.22147216796875 1.1632500000000001 Q 5.17647216796875 1.1400000000000001 5.15322216796875 1.098 Q 5.12997216796875 1.056 5.12997216796875 1.0005000000000002 Q 5.12997216796875 0.9345000000000001 5.16072216796875 0.8925000000000001 Q 5.19147216796875 0.8505000000000001 5.23947216796875 0.8250000000000002 Q 5.28747216796875 0.7995000000000001 5.3407221679687495 0.7822500000000001 Q 5.39397216796875 0.7650000000000001 5.44197216796875 0.7492500000000002 Q 5.48997216796875 0.7335000000000002 5.52072216796875 0.7125000000000001 Q 5.55147216796875 0.6915000000000002 5.55147216796875 0.6570000000000001 L 5.55147216796875 0.5640000000000002 Q 5.55147216796875 0.5010000000000001 5.53272216796875 0.4680000000000002 Q 5.51397216796875 0.43500000000000016 5.48247216796875 0.4237500000000002 Q 5.45097216796875 0.4125000000000001 5.4119721679687505 0.4125000000000001 Q 5.37447216796875 0.4125000000000001 5.33172216796875 0.42300000000000015 Q 5.28897216796875 0.4335000000000001 5.26347216796875 0.46650000000000014 Q 5.29197216796875 0.47250000000000014 5.31297216796875 0.49650000000000016 Q 5.33397216796875 0.5205000000000002 5.33397216796875 0.5580000000000002 Q 5.33397216796875 0.5955000000000001 5.30997216796875 0.6172500000000002 Q 5.28597216796875 0.6390000000000001 5.24847216796875 0.6390000000000001 Q 5.20497216796875 0.6390000000000001 5.18472216796875 0.6112500000000002 Q 5.16447216796875 0.5835000000000001 5.16447216796875 0.5490000000000002 Q 5.16447216796875 0.5100000000000001 5.18397216796875 0.4860000000000001 Q 5.20347216796875 0.4620000000000002 5.23347216796875 0.44100000000000017 Q 5.26797216796875 0.41700000000000015 5.32272216796875 0.39975000000000016 Q 5.37747216796875 0.3825000000000002 5.44647216796875 0.3825000000000002 Q 5.50797216796875 0.3825000000000002 5.55147216796875 0.39675000000000016 Q 5.59497216796875 0.41100000000000014 5.62347216796875 0.43800000000000017 Q 5.66247216796875 0.4740000000000001 5.67447216796875 0.5257500000000002 Q 5.68647216796875 0.5775000000000001 5.68647216796875 0.6495000000000002 L 5.68647216796875 1.0665000000000002 Q 5.68647216796875 1.104 5.69772216796875 1.1205 Q 5.70897216796875 1.1370000000000002 5.73297216796875 1.1370000000000002 Q 5.74947216796875 1.1370000000000002 5.76447216796875 1.1295000000000002 Q 5.77947216796875 1.122 5.80047216796875 1.1055000000000001 L 5.81697216796875 1.1310000000000002 Q 5.78547216796875 1.1550000000000002 5.75697216796875 1.1707500000000002 Q 5.72847216796875 1.1865 5.68047216796875 1.1865 Q 5.63697216796875 1.1865 5.60847216796875 1.1715000000000002 Q 5.57997216796875 1.1565 5.56572216796875 1.12725 Q 5.55147216796875 1.098 5.55147216796875 1.0530000000000002 Q 5.51097216796875 1.1205 5.45472216796875 1.1535000000000002 Q 5.39847216796875 1.1865 5.32797216796875 1.1865 M 5.38197216796875 1.1265 Q 5.43147216796875 1.1265 5.47422216796875 1.098 Q 5.51697216796875 1.0695000000000001 5.55147216796875 1.0125000000000002 L 5.55147216796875 0.7185000000000001 Q 5.53347216796875 0.7440000000000002 5.49897216796875 0.7612500000000002 Q 5.46447216796875 0.7785000000000002 5.42397216796875 0.7957500000000002 Q 5.38347216796875 0.8130000000000002 5.34672216796875 0.8362500000000002 Q 5.30997216796875 0.8595000000000002 5.28597216796875 0.8970000000000001 Q 5.26197216796875 0.9345000000000001 5.26197216796875 0.9945000000000002 Q 5.26197216796875 1.0545000000000002 5.29422216796875 1.0905000000000002 Q 5.32647216796875 1.1265 5.38197216796875 1.1265 M 6.328450927734375 0.3825000000000002 Q 6.3689509277343745 0.3825000000000002 6.399700927734375 0.39900000000000013 Q 6.430450927734375 0.4155000000000001 6.447700927734375 0.4417500000000001 Q 6.464950927734375 0.4680000000000002 6.464950927734375 0.5010000000000001 Q 6.464950927734375 0.5385000000000001 6.441700927734375 0.5670000000000002 Q 6.418450927734375 0.5955000000000001 6.379450927734375 0.5955000000000001 Q 6.347950927734375 0.5955000000000001 6.323950927734375 0.5752500000000002 Q 6.299950927734375 0.5550000000000002 6.299950927734375 0.5175000000000002 Q 6.299950927734375 0.4890000000000001 6.315700927734375 0.4687500000000001 Q 6.331450927734375 0.4485000000000001 6.350950927734375 0.4365000000000001 Q 6.340450927734375 0.4215000000000001 6.319450927734375 0.4215000000000001 Q 6.272950927734375 0.4215000000000001 6.233950927734375 0.44925000000000015 Q 6.194950927734375 0.4770000000000001 6.167950927734375 0.5205000000000002 Q 6.140950927734375 0.5640000000000002 6.125950927734375 0.6127500000000001 Q 6.110950927734375 0.6615000000000002 6.110950927734375 0.7035000000000001 L 6.110950927734375 1.0215 Q 6.110950927734375 1.0950000000000002 6.153700927734375 1.1197500000000002 Q 6.196450927734375 1.1445 6.269950927734375 1.1445 L 6.269950927734375 1.1760000000000002 Q 6.235450927734375 1.1745 6.172450927734375 1.1722500000000002 Q 6.109450927734375 1.1700000000000002 6.038950927734375 1.1700000000000002 Q 5.987950927734375 1.1700000000000002 5.937700927734375 1.1722500000000002 Q 5.887450927734375 1.1745 5.861950927734375 1.1760000000000002 L 5.861950927734375 1.1445 Q 5.923450927734375 1.1445 5.949700927734375 1.122 Q 5.975950927734375 1.0995000000000001 5.975950927734375 1.0365000000000002 L 5.975950927734375 0.5670000000000002 Q 5.975950927734375 0.49950000000000017 5.951950927734375 0.46725000000000017 Q 5.927950927734375 0.43500000000000016 5.861950927734375 0.43500000000000016 L 5.861950927734375 0.4035000000000002 Q 5.909950927734375 0.40800000000000014 5.954950927734375 0.40800000000000014 Q 5.998450927734375 0.40800000000000014 6.038200927734375 0.40275000000000016 Q 6.077950927734375 0.3975000000000002 6.110950927734375 0.3870000000000001 L 6.110950927734375 0.5745000000000001 Q 6.127450927734375 0.5310000000000001 6.158200927734375 0.4867500000000001 Q 6.188950927734375 0.4425000000000001 6.232450927734375 0.4125000000000001 Q 6.275950927734375 0.3825000000000002 6.328450927734375 0.3825000000000002" fill="#173054" fill-rule="nonzero"></path></g><g></g></g><defs><clipPath id="SvgjsClipPath20811"><path d=" M 0.43447706425301647 -5.866913180133369 h 5.617007785556467 v 5.616913180133369 h -5.617007785556467 Z"></path></clipPath><clipPath id="a93f7e4a9-e165-471e-a08e-e6f98ac44aee11d16e05-067e-461c-bea5-a12677ff2ff9"><path d=" M -0.022183313037688446 0.20666037729070652 L 6.507956016253996 0.20666037729070652 L 6.507956016253996 -6.323478952000977 L -0.022183313037688446 -6.323478952000977 Z"></path></clipPath></defs></svg>